# xmcd
#
# Track frame offsets: 
#        150
#        11946
#        26184
#        40191
#        54057
#        67826
#        75668
#        85513
#        95618
#        114501
#        125846
#
# Disc length: 1812 seconds
#
# Revision: 0
# Processed by: cddbd v1.5.2PL0 Copyright (c) Steve Scherf et al.
# Submitted via: ExactAudioCopy v0.99pb4
#
DISCID=8407120b
DTITLE=Chigger Hill Boys and Terri - Oh Well
DYEAR=2010
DGENRE=Bluegrass
TTITLE0=Blaze of Glory
TTITLE1=Hallelujah, What a Day
TTITLE2=Blue Skies
TTITLE3=There's Never An Unguarded Moment
TTITLE4=Roll Your Burdens on the Rock of Ages
TTITLE5=Flint Hill Special
TTITLE6=Oh Well
TTITLE7=Flight That Is Leaving Soon
TTITLE8=Just Ask, He'll Do the Rest
TTITLE9=This World is Not My Home
TTITLE10=Blackberry Pickin'
EXTD=
EXTT0=
EXTT1=
EXTT2=
EXTT3=
EXTT4=
EXTT5=
EXTT6=
EXTT7=
EXTT8=
EXTT9=
EXTT10=
PLAYORDER=
